<svg xmlns="http://www.w3.org/2000/svg" width="1600" height="900" viewBox="0 0 1600 900" role="img" aria-labelledby="title desc">
  <title id="title">Bangla AI prompt dashboard illustration</title>
  <desc id="desc">Gradient panels with Bangla script elements and AI connectors.</desc>
  <defs>
    <linearGradient id="bn-panel" x1="0" x2="1" y1="0" y2="1">
      <stop offset="0%" stop-color="#701a75" />
      <stop offset="100%" stop-color="#1e293b" />
    </linearGradient>
    <radialGradient id="bn-glow" cx="0.6" cy="0.4" r="0.6">
      <stop offset="0%" stop-color="#a855f7" stop-opacity="0.9" />
      <stop offset="100%" stop-color="#0f172a" stop-opacity="0" />
    </radialGradient>
  </defs>
  <rect width="1600" height="900" fill="#020617" rx="64" />
  <circle cx="420" cy="200" r="320" fill="url(#bn-glow)" opacity="0.6" />
  <g transform="translate(280 240)">
    <rect width="460" height="220" rx="36" fill="url(#bn-panel)" opacity="0.95" />
    <rect x="520" y="-40" width="380" height="180" rx="40" fill="#2563eb" opacity="0.75" />
    <rect x="560" y="220" width="340" height="160" rx="36" fill="#22c55e" opacity="0.8" />
    <path d="M160 250C420 330 620 330 900 250" fill="none" stroke="#f472b6" stroke-width="10" stroke-linecap="round" opacity="0.6" />
    <path d="M200 320C520 420 780 420 1080 320" fill="none" stroke="#facc15" stroke-width="8" stroke-linecap="round" opacity="0.55" />
  </g>
  <g transform="translate(340 280)">
    <rect width="140" height="30" rx="15" fill="#fdf4ff" opacity="0.9" />
    <rect x="180" width="120" height="30" rx="15" fill="#fee2e2" opacity="0.9" />
    <rect y="60" width="320" height="26" rx="13" fill="#c7d2fe" opacity="0.85" />
    <rect y="104" width="280" height="22" rx="11" fill="#fef08a" opacity="0.8" />
  </g>
</svg>
