<svg xmlns="http://www.w3.org/2000/svg" width="1600" height="900" viewBox="0 0 1600 900" role="img" aria-labelledby="title desc">
  <title id="title">Bangla performance illustration</title>
  <desc id="desc">Speedometer and server cards depicting fast Bangla web performance.</desc>
  <defs>
    <linearGradient id="perf-bg" x1="0" x2="1" y1="0" y2="1">
      <stop offset="0%" stop-color="#082f49" />
      <stop offset="100%" stop-color="#111827" />
    </linearGradient>
  </defs>
  <rect width="1600" height="900" fill="url(#perf-bg)" rx="64" />
  <g transform="translate(320 220)">
    <rect width="460" height="360" rx="42" fill="#0ea5e9" opacity="0.3" />
    <rect x="520" y="80" width="420" height="260" rx="36" fill="#10b981" opacity="0.35" />
  </g>
  <g transform="translate(380 260)">
    <circle cx="220" cy="200" r="180" fill="#0c4a6e" opacity="0.85" />
    <path d="M220 40a160 160 0 1 1 0 320" fill="none" stroke="#38bdf8" stroke-width="24" stroke-linecap="round" />
    <path d="M220 200L340 140" stroke="#facc15" stroke-width="24" stroke-linecap="round" />
    <circle cx="220" cy="200" r="32" fill="#facc15" />
  </g>
  <g transform="translate(760 280)">
    <rect width="420" height="240" rx="32" fill="#064e3b" opacity="0.9" />
    <rect x="48" y="60" width="324" height="44" rx="18" fill="#f0fdf4" opacity="0.9" />
    <rect x="48" y="120" width="260" height="28" rx="14" fill="#bbf7d0" opacity="0.85" />
    <rect x="48" y="168" width="200" height="24" rx="12" fill="#99f6e4" opacity="0.8" />
  </g>
</svg>
