<svg xmlns="http://www.w3.org/2000/svg" width="1600" height="900" viewBox="0 0 1600 900" role="img" aria-labelledby="title desc">
  <title id="title">Typography grid illustration</title>
  <desc id="desc">Modular grid with contrast swatches and vertical rhythm markers.</desc>
  <defs>
    <linearGradient id="grid-bg" x1="0" x2="1" y1="0" y2="1">
      <stop offset="0%" stop-color="#0f172a" />
      <stop offset="100%" stop-color="#312e81" />
    </linearGradient>
  </defs>
  <rect width="1600" height="900" fill="url(#grid-bg)" rx="64" />
  <g transform="translate(300 140)" stroke="#6366f1" stroke-width="2" stroke-opacity="0.35">
    <path d="M0 0h1000" />
    <path d="M0 120h1000" />
    <path d="M0 240h1000" />
    <path d="M0 360h1000" />
    <path d="M0 480h1000" />
    <path d="M0 600h1000" />
    <path d="M0 720h1000" />
    <path d="M0 0v720" />
    <path d="M125 0v720" />
    <path d="M250 0v720" />
    <path d="M375 0v720" />
    <path d="M500 0v720" />
    <path d="M625 0v720" />
    <path d="M750 0v720" />
    <path d="M875 0v720" />
  </g>
  <g transform="translate(360 220)">
    <rect width="360" height="160" rx="28" fill="#f59e0b" opacity="0.85" />
    <rect x="420" y="40" width="280" height="90" rx="24" fill="#22d3ee" opacity="0.9" />
    <rect x="740" y="20" width="160" height="52" rx="16" fill="#a855f7" opacity="0.85" />
    <rect x="740" y="92" width="120" height="52" rx="16" fill="#f97316" opacity="0.85" />
  </g>
  <g transform="translate(360 480)">
    <rect width="500" height="40" rx="20" fill="#e0f2fe" opacity="0.75" />
    <rect y="70" width="420" height="28" rx="14" fill="#c4b5fd" opacity="0.85" />
    <rect y="120" width="520" height="20" rx="10" fill="#a5b4fc" opacity="0.8" />
  </g>
</svg>
